<mxfile host="app.diagrams.net" modified="2023-12-03T23:44:51.114Z" agent="Mozilla/5.0 (Windows NT 10.0; Win64; x64) AppleWebKit/537.36 (KHTML, like Gecko) Chrome/118.0.0.0 Safari/537.36 OPR/104.0.0.0" etag="senmC8PiMnxA9mUg2ROg" version="22.1.5" type="google">
  <diagram name="Page-1" id="FFI3w0g1MH9gnlZdxmnA">
    <mxGraphModel grid="1" page="1" gridSize="10" guides="1" tooltips="1" connect="1" arrows="1" fold="1" pageScale="1" pageWidth="850" pageHeight="1100" math="0" shadow="0">
      <root>
        <mxCell id="0" />
        <mxCell id="1" parent="0" />
        <mxCell id="9ercS7QOobOM5DavKYnJ-20" value="" style="group" connectable="0" vertex="1" parent="1">
          <mxGeometry x="-610" y="70" width="160" height="240" as="geometry" />
        </mxCell>
        <mxCell id="9ercS7QOobOM5DavKYnJ-21" value="" style="rounded=0;whiteSpace=wrap;html=1;fillColor=#eeeeee;strokeColor=#36393d;" vertex="1" parent="9ercS7QOobOM5DavKYnJ-20">
          <mxGeometry y="32.724" width="160" height="207.27599999999998" as="geometry" />
        </mxCell>
        <mxCell id="9ercS7QOobOM5DavKYnJ-26" value="Available Teams" style="text;html=1;align=left;verticalAlign=middle;resizable=0;points=[];autosize=1;strokeColor=none;fillColor=none;" vertex="1" parent="9ercS7QOobOM5DavKYnJ-20">
          <mxGeometry width="110" height="30" as="geometry" />
        </mxCell>
        <mxCell id="9ercS7QOobOM5DavKYnJ-14" value="Power Rating" style="shape=parallelogram;perimeter=parallelogramPerimeter;whiteSpace=wrap;html=1;fixedSize=1;rounded=0;fillColor=#E1D5E7;strokeColor=#9673a6;" vertex="1" parent="9ercS7QOobOM5DavKYnJ-20">
          <mxGeometry x="10" y="160" width="140" height="30" as="geometry" />
        </mxCell>
        <mxCell id="9ercS7QOobOM5DavKYnJ-11" value="Additional Variables" style="shape=parallelogram;perimeter=parallelogramPerimeter;whiteSpace=wrap;html=1;fixedSize=1;rounded=0;fillColor=#E1D5E7;strokeColor=#9673a6;" vertex="1" parent="9ercS7QOobOM5DavKYnJ-20">
          <mxGeometry x="10" y="200" width="140" height="30" as="geometry" />
        </mxCell>
        <mxCell id="T1bbL8raHNwF6YN5agup-30" value="Team Number" style="shape=parallelogram;perimeter=parallelogramPerimeter;whiteSpace=wrap;html=1;fixedSize=1;rounded=0;fillColor=#E1D5E7;strokeColor=#9673a6;" vertex="1" parent="9ercS7QOobOM5DavKYnJ-20">
          <mxGeometry x="10" y="121.36000000000001" width="140" height="30" as="geometry" />
        </mxCell>
        <mxCell id="9ercS7QOobOM5DavKYnJ-1" value="getTeamData()" style="rounded=1;whiteSpace=wrap;html=1;fillColor=#dae8fc;strokeColor=#6c8ebf;" vertex="1" parent="1">
          <mxGeometry x="-747" y="149" width="90" height="31" as="geometry" />
        </mxCell>
        <mxCell id="9ercS7QOobOM5DavKYnJ-2" style="edgeStyle=orthogonalEdgeStyle;rounded=0;orthogonalLoop=1;jettySize=auto;html=1;exitX=1;exitY=0.5;exitDx=0;exitDy=0;exitPerimeter=0;entryX=0;entryY=0.5;entryDx=0;entryDy=0;" edge="1" parent="1" source="9ercS7QOobOM5DavKYnJ-3" target="9ercS7QOobOM5DavKYnJ-1">
          <mxGeometry relative="1" as="geometry" />
        </mxCell>
        <mxCell id="9ercS7QOobOM5DavKYnJ-3" value="on page load" style="strokeWidth=2;html=1;shape=mxgraph.flowchart.start_2;whiteSpace=wrap;fillColor=#d5e8d4;strokeColor=#82b366;" vertex="1" parent="1">
          <mxGeometry x="-830" y="129.5" width="70" height="70" as="geometry" />
        </mxCell>
        <mxCell id="9ercS7QOobOM5DavKYnJ-4" value="" style="endArrow=classic;html=1;rounded=0;exitX=1;exitY=0.5;exitDx=0;exitDy=0;" edge="1" parent="1" source="9ercS7QOobOM5DavKYnJ-1">
          <mxGeometry width="50" height="50" relative="1" as="geometry">
            <mxPoint x="-600" y="240" as="sourcePoint" />
            <mxPoint x="-590" y="165" as="targetPoint" />
          </mxGeometry>
        </mxCell>
        <mxCell id="9ercS7QOobOM5DavKYnJ-5" value="" style="endArrow=classic;html=1;rounded=0;" edge="1" parent="1">
          <mxGeometry width="50" height="50" relative="1" as="geometry">
            <mxPoint x="-630" y="170" as="sourcePoint" />
            <mxPoint x="-590" y="125.33000000000001" as="targetPoint" />
            <Array as="points">
              <mxPoint x="-630" y="125" />
              <mxPoint x="-600" y="125.33000000000001" />
            </Array>
          </mxGeometry>
        </mxCell>
        <mxCell id="9ercS7QOobOM5DavKYnJ-6" value="" style="endArrow=classic;html=1;rounded=0;entryX=0;entryY=0.5;entryDx=0;entryDy=0;" edge="1" parent="1" target="9ercS7QOobOM5DavKYnJ-14">
          <mxGeometry width="50" height="50" relative="1" as="geometry">
            <mxPoint x="-630" y="160" as="sourcePoint" />
            <mxPoint x="-590" y="205.32999999999998" as="targetPoint" />
            <Array as="points">
              <mxPoint x="-630" y="245" />
            </Array>
          </mxGeometry>
        </mxCell>
        <mxCell id="9ercS7QOobOM5DavKYnJ-12" value="Team Name" style="shape=parallelogram;perimeter=parallelogramPerimeter;whiteSpace=wrap;html=1;fixedSize=1;rounded=0;fillColor=#E1D5E7;strokeColor=#9673a6;" vertex="1" parent="1">
          <mxGeometry x="-600" y="150" width="140" height="30" as="geometry" />
        </mxCell>
        <mxCell id="9ercS7QOobOM5DavKYnJ-13" value="Rank" style="shape=parallelogram;perimeter=parallelogramPerimeter;whiteSpace=wrap;html=1;fixedSize=1;rounded=0;fillColor=#E1D5E7;strokeColor=#9673a6;" vertex="1" parent="1">
          <mxGeometry x="-600" y="110" width="140" height="30" as="geometry" />
        </mxCell>
        <mxCell id="9ercS7QOobOM5DavKYnJ-15" value="" style="endArrow=classic;html=1;rounded=0;entryX=0;entryY=0.5;entryDx=0;entryDy=0;" edge="1" parent="1" target="9ercS7QOobOM5DavKYnJ-11">
          <mxGeometry width="50" height="50" relative="1" as="geometry">
            <mxPoint x="-630" y="200" as="sourcePoint" />
            <mxPoint x="-520" y="90" as="targetPoint" />
            <Array as="points">
              <mxPoint x="-630" y="285" />
            </Array>
          </mxGeometry>
        </mxCell>
        <mxCell id="F8CUXBEhj8OmJmXDhwfv-9" value="captainAutofill()" style="rounded=1;whiteSpace=wrap;html=1;fillColor=#dae8fc;strokeColor=#6c8ebf;" vertex="1" parent="1">
          <mxGeometry x="-455" y="399" width="90" height="31" as="geometry" />
        </mxCell>
        <mxCell id="9ercS7QOobOM5DavKYnJ-44" value="" style="rounded=0;whiteSpace=wrap;html=1;fillColor=#eeeeee;strokeColor=#36393d;" vertex="1" parent="1">
          <mxGeometry x="-365" y="550" width="160" height="149" as="geometry" />
        </mxCell>
        <mxCell id="9ercS7QOobOM5DavKYnJ-46" value="Team 1/Captain" style="shape=parallelogram;perimeter=parallelogramPerimeter;whiteSpace=wrap;html=1;fixedSize=1;rounded=0;fillColor=#e1d5e7;strokeColor=#9673a6;" vertex="1" parent="1">
          <mxGeometry x="-355" y="569" width="140" height="30" as="geometry" />
        </mxCell>
        <mxCell id="9ercS7QOobOM5DavKYnJ-47" value="Team 2" style="shape=parallelogram;perimeter=parallelogramPerimeter;whiteSpace=wrap;html=1;fixedSize=1;rounded=0;fillColor=#e1d5e7;strokeColor=#9673a6;" vertex="1" parent="1">
          <mxGeometry x="-355" y="609" width="140" height="30" as="geometry" />
        </mxCell>
        <mxCell id="9ercS7QOobOM5DavKYnJ-48" value="Team 3" style="shape=parallelogram;perimeter=parallelogramPerimeter;whiteSpace=wrap;html=1;fixedSize=1;rounded=0;fillColor=#e1d5e7;strokeColor=#9673a6;" vertex="1" parent="1">
          <mxGeometry x="-355" y="649" width="140" height="30" as="geometry" />
        </mxCell>
        <mxCell id="9ercS7QOobOM5DavKYnJ-45" value="Alliance Builder" style="text;html=1;align=center;verticalAlign=middle;resizable=0;points=[];autosize=1;strokeColor=none;fillColor=none;" vertex="1" parent="1">
          <mxGeometry x="-365" y="699" width="110" height="30" as="geometry" />
        </mxCell>
        <mxCell id="F8CUXBEhj8OmJmXDhwfv-7" value="Create Allience&lt;br&gt;Button" style="verticalLabelPosition=middle;verticalAlign=middle;html=1;shape=trapezoid;perimeter=trapezoidPerimeter;whiteSpace=wrap;size=0.23;arcSize=10;flipV=1;labelPosition=center;align=center;fillColor=#d5e8d4;strokeColor=#82b366;" vertex="1" parent="1">
          <mxGeometry x="-335" y="390" width="100" height="60" as="geometry" />
        </mxCell>
        <mxCell id="T1bbL8raHNwF6YN5agup-7" value="" style="endArrow=classic;html=1;rounded=0;fontSize=12;startSize=8;endSize=8;curved=1;exitX=0.5;exitY=0;exitDx=0;exitDy=0;entryX=0.5;entryY=1;entryDx=0;entryDy=0;" edge="1" parent="1" source="9ercS7QOobOM5DavKYnJ-44" target="F8CUXBEhj8OmJmXDhwfv-7">
          <mxGeometry width="50" height="50" relative="1" as="geometry">
            <mxPoint x="-355" y="400" as="sourcePoint" />
            <mxPoint x="-305" y="350" as="targetPoint" />
          </mxGeometry>
        </mxCell>
        <mxCell id="T1bbL8raHNwF6YN5agup-8" value="" style="endArrow=classic;html=1;rounded=0;fontSize=12;startSize=8;endSize=8;curved=1;exitX=1;exitY=0.5;exitDx=0;exitDy=0;entryX=0;entryY=0.5;entryDx=0;entryDy=0;" edge="1" parent="1" source="F8CUXBEhj8OmJmXDhwfv-7" target="T1bbL8raHNwF6YN5agup-21">
          <mxGeometry width="50" height="50" relative="1" as="geometry">
            <mxPoint x="-115.00000000000045" y="419.99999999999955" as="sourcePoint" />
            <mxPoint x="-85" y="419" as="targetPoint" />
          </mxGeometry>
        </mxCell>
        <mxCell id="T1bbL8raHNwF6YN5agup-9" value="" style="endArrow=none;html=1;rounded=0;fontSize=12;startSize=8;endSize=8;curved=1;entryX=0.446;entryY=0.019;entryDx=0;entryDy=0;entryPerimeter=0;" edge="1" parent="1" target="T1bbL8raHNwF6YN5agup-21">
          <mxGeometry width="50" height="50" relative="1" as="geometry">
            <mxPoint x="-45" y="340" as="sourcePoint" />
            <mxPoint x="-35" y="406" as="targetPoint" />
          </mxGeometry>
        </mxCell>
        <mxCell id="T1bbL8raHNwF6YN5agup-11" value="" style="endArrow=classic;html=1;rounded=0;fontSize=12;startSize=8;endSize=8;edgeStyle=orthogonalEdgeStyle;" edge="1" parent="1" target="F8CUXBEhj8OmJmXDhwfv-9">
          <mxGeometry width="50" height="50" relative="1" as="geometry">
            <mxPoint x="-45" y="340" as="sourcePoint" />
            <mxPoint x="-405" y="330" as="targetPoint" />
          </mxGeometry>
        </mxCell>
        <mxCell id="T1bbL8raHNwF6YN5agup-14" value="Team 2 &lt;br&gt;Input Field" style="verticalLabelPosition=middle;verticalAlign=middle;html=1;shape=trapezoid;perimeter=trapezoidPerimeter;whiteSpace=wrap;size=0.23;arcSize=10;flipV=1;labelPosition=center;align=center;fillColor=#d5e8d4;strokeColor=#82b366;" vertex="1" parent="1">
          <mxGeometry x="-650" y="593.5" width="100" height="60" as="geometry" />
        </mxCell>
        <mxCell id="T1bbL8raHNwF6YN5agup-16" value="Team 2 &lt;br&gt;Input Field" style="verticalLabelPosition=middle;verticalAlign=middle;html=1;shape=trapezoid;perimeter=trapezoidPerimeter;whiteSpace=wrap;size=0.23;arcSize=10;flipV=1;labelPosition=center;align=center;fillColor=#d5e8d4;strokeColor=#82b366;" vertex="1" parent="1">
          <mxGeometry x="-650" y="663.5" width="100" height="60" as="geometry" />
        </mxCell>
        <mxCell id="T1bbL8raHNwF6YN5agup-21" value="createAllience()" style="rounded=1;whiteSpace=wrap;html=1;fillColor=#dae8fc;strokeColor=#6c8ebf;" vertex="1" parent="1">
          <mxGeometry x="-85" y="404.5" width="90" height="31" as="geometry" />
        </mxCell>
        <mxCell id="T1bbL8raHNwF6YN5agup-24" value="" style="endArrow=classic;html=1;rounded=0;fontSize=12;startSize=8;endSize=8;exitX=1;exitY=0.5;exitDx=0;exitDy=0;entryX=0;entryY=0.5;entryDx=0;entryDy=0;edgeStyle=orthogonalEdgeStyle;" edge="1" parent="1" source="T1bbL8raHNwF6YN5agup-81" target="9ercS7QOobOM5DavKYnJ-47">
          <mxGeometry width="50" height="50" relative="1" as="geometry">
            <mxPoint x="-405" y="590" as="sourcePoint" />
            <mxPoint x="-355" y="540" as="targetPoint" />
          </mxGeometry>
        </mxCell>
        <mxCell id="T1bbL8raHNwF6YN5agup-25" value="" style="endArrow=classic;html=1;rounded=0;fontSize=12;startSize=8;endSize=8;exitX=1;exitY=0.5;exitDx=0;exitDy=0;entryX=0;entryY=0.5;entryDx=0;entryDy=0;edgeStyle=orthogonalEdgeStyle;" edge="1" parent="1" source="T1bbL8raHNwF6YN5agup-80" target="9ercS7QOobOM5DavKYnJ-48">
          <mxGeometry width="50" height="50" relative="1" as="geometry">
            <mxPoint x="-515" y="706" as="sourcePoint" />
            <mxPoint x="-324" y="720" as="targetPoint" />
          </mxGeometry>
        </mxCell>
        <mxCell id="T1bbL8raHNwF6YN5agup-31" value="" style="endArrow=classic;html=1;rounded=0;fontSize=12;startSize=8;endSize=8;entryX=0;entryY=0.5;entryDx=0;entryDy=0;edgeStyle=orthogonalEdgeStyle;" edge="1" parent="1" target="T1bbL8raHNwF6YN5agup-30">
          <mxGeometry width="50" height="50" relative="1" as="geometry">
            <mxPoint x="-630" y="160" as="sourcePoint" />
            <mxPoint x="-340" y="130" as="targetPoint" />
            <Array as="points">
              <mxPoint x="-630" y="206" />
            </Array>
          </mxGeometry>
        </mxCell>
        <mxCell id="T1bbL8raHNwF6YN5agup-32" value="" style="endArrow=classic;html=1;rounded=0;fontSize=12;startSize=8;endSize=8;exitX=0.5;exitY=1;exitDx=0;exitDy=0;entryX=0.5;entryY=0;entryDx=0;entryDy=0;edgeStyle=orthogonalEdgeStyle;" edge="1" parent="1" source="F8CUXBEhj8OmJmXDhwfv-9" target="T1bbL8raHNwF6YN5agup-49">
          <mxGeometry width="50" height="50" relative="1" as="geometry">
            <mxPoint x="-180" y="420" as="sourcePoint" />
            <mxPoint x="-130" y="370" as="targetPoint" />
            <Array as="points">
              <mxPoint x="-410" y="500" />
              <mxPoint x="-470" y="500" />
            </Array>
          </mxGeometry>
        </mxCell>
        <mxCell id="T1bbL8raHNwF6YN5agup-33" value="" style="endArrow=classic;html=1;rounded=0;fontSize=12;startSize=8;endSize=8;exitX=0.5;exitY=1;exitDx=0;exitDy=0;entryX=0;entryY=0.5;entryDx=0;entryDy=0;edgeStyle=orthogonalEdgeStyle;" edge="1" parent="1" source="9ercS7QOobOM5DavKYnJ-21" target="F8CUXBEhj8OmJmXDhwfv-9">
          <mxGeometry width="50" height="50" relative="1" as="geometry">
            <mxPoint x="-350" y="370" as="sourcePoint" />
            <mxPoint x="-300" y="320" as="targetPoint" />
          </mxGeometry>
        </mxCell>
        <mxCell id="T1bbL8raHNwF6YN5agup-38" value="" style="group" connectable="0" vertex="1" parent="1">
          <mxGeometry x="-40" y="70" width="170" height="240" as="geometry" />
        </mxCell>
        <mxCell id="T1bbL8raHNwF6YN5agup-39" value="" style="rounded=0;whiteSpace=wrap;html=1;fillColor=#eeeeee;strokeColor=#36393d;" vertex="1" parent="T1bbL8raHNwF6YN5agup-38">
          <mxGeometry y="30.003999999999998" width="160" height="207.27599999999998" as="geometry" />
        </mxCell>
        <mxCell id="T1bbL8raHNwF6YN5agup-40" value="Alliance &quot;Graveyard&quot; Table&amp;nbsp;" style="text;html=1;align=left;verticalAlign=middle;resizable=0;points=[];autosize=1;strokeColor=none;fillColor=none;" vertex="1" parent="T1bbL8raHNwF6YN5agup-38">
          <mxGeometry width="170" height="30" as="geometry" />
        </mxCell>
        <mxCell id="T1bbL8raHNwF6YN5agup-41" value="Team 2" style="shape=parallelogram;perimeter=parallelogramPerimeter;whiteSpace=wrap;html=1;fixedSize=1;rounded=0;fillColor=#E1D5E7;strokeColor=#9673a6;" vertex="1" parent="T1bbL8raHNwF6YN5agup-38">
          <mxGeometry x="10" y="80" width="140" height="30" as="geometry" />
        </mxCell>
        <mxCell id="T1bbL8raHNwF6YN5agup-42" value="Team 3" style="shape=parallelogram;perimeter=parallelogramPerimeter;whiteSpace=wrap;html=1;fixedSize=1;rounded=0;fillColor=#E1D5E7;strokeColor=#9673a6;" vertex="1" parent="T1bbL8raHNwF6YN5agup-38">
          <mxGeometry x="10" y="118.64" width="140" height="30" as="geometry" />
        </mxCell>
        <mxCell id="T1bbL8raHNwF6YN5agup-43" value="Team 1/Captain" style="shape=parallelogram;perimeter=parallelogramPerimeter;whiteSpace=wrap;html=1;fixedSize=1;rounded=0;fillColor=#E1D5E7;strokeColor=#9673a6;" vertex="1" parent="T1bbL8raHNwF6YN5agup-38">
          <mxGeometry x="10" y="40.000000000000014" width="140" height="30" as="geometry" />
        </mxCell>
        <mxCell id="T1bbL8raHNwF6YN5agup-44" value="" style="endArrow=classic;html=1;rounded=0;fontSize=12;startSize=8;endSize=8;exitX=1;exitY=0.5;exitDx=0;exitDy=0;entryX=0.5;entryY=1;entryDx=0;entryDy=0;edgeStyle=orthogonalEdgeStyle;" edge="1" parent="1" source="T1bbL8raHNwF6YN5agup-21" target="T1bbL8raHNwF6YN5agup-39">
          <mxGeometry width="50" height="50" relative="1" as="geometry">
            <mxPoint x="-290" y="220" as="sourcePoint" />
            <mxPoint y="200" as="targetPoint" />
            <Array as="points">
              <mxPoint x="40" y="420" />
            </Array>
          </mxGeometry>
        </mxCell>
        <mxCell id="T1bbL8raHNwF6YN5agup-45" value="Sort By&lt;br&gt;Weight&lt;br&gt;Options" style="verticalLabelPosition=middle;verticalAlign=middle;html=1;shape=trapezoid;perimeter=trapezoidPerimeter;whiteSpace=wrap;size=0.23;arcSize=10;flipV=1;labelPosition=center;align=center;fillColor=#d5e8d4;strokeColor=#82b366;" vertex="1" parent="1">
          <mxGeometry x="-420" y="110" width="100" height="60" as="geometry" />
        </mxCell>
        <mxCell id="T1bbL8raHNwF6YN5agup-46" value="Sort By&lt;br&gt;Column&lt;br&gt;Option" style="verticalLabelPosition=middle;verticalAlign=middle;html=1;shape=trapezoid;perimeter=trapezoidPerimeter;whiteSpace=wrap;size=0.23;arcSize=10;flipV=1;labelPosition=center;align=center;fillColor=#d5e8d4;strokeColor=#82b366;" vertex="1" parent="1">
          <mxGeometry x="-420" y="210" width="100" height="60" as="geometry" />
        </mxCell>
        <mxCell id="T1bbL8raHNwF6YN5agup-47" value="" style="endArrow=classic;html=1;rounded=0;fontSize=12;startSize=8;endSize=8;exitX=0;exitY=0.5;exitDx=0;exitDy=0;entryX=1;entryY=0.25;entryDx=0;entryDy=0;edgeStyle=orthogonalEdgeStyle;" edge="1" parent="1" source="T1bbL8raHNwF6YN5agup-45" target="9ercS7QOobOM5DavKYnJ-21">
          <mxGeometry width="50" height="50" relative="1" as="geometry">
            <mxPoint x="-460" y="240" as="sourcePoint" />
            <mxPoint x="-410" y="190" as="targetPoint" />
          </mxGeometry>
        </mxCell>
        <mxCell id="T1bbL8raHNwF6YN5agup-48" value="" style="endArrow=classic;html=1;rounded=0;fontSize=12;startSize=8;endSize=8;exitX=0;exitY=0.5;exitDx=0;exitDy=0;entryX=1;entryY=0.75;entryDx=0;entryDy=0;edgeStyle=orthogonalEdgeStyle;" edge="1" parent="1" source="T1bbL8raHNwF6YN5agup-46" target="9ercS7QOobOM5DavKYnJ-21">
          <mxGeometry width="50" height="50" relative="1" as="geometry">
            <mxPoint x="-460" y="240" as="sourcePoint" />
            <mxPoint x="-410" y="190" as="targetPoint" />
          </mxGeometry>
        </mxCell>
        <mxCell id="T1bbL8raHNwF6YN5agup-49" value="Team Captain&lt;br&gt;Input Field" style="verticalLabelPosition=middle;verticalAlign=middle;html=1;shape=trapezoid;perimeter=trapezoidPerimeter;whiteSpace=wrap;size=0.23;arcSize=10;flipV=1;labelPosition=center;align=center;fillColor=#d5e8d4;strokeColor=#82b366;" vertex="1" parent="1">
          <mxGeometry x="-520" y="524.5" width="100" height="60" as="geometry" />
        </mxCell>
        <mxCell id="T1bbL8raHNwF6YN5agup-50" value="" style="endArrow=classic;html=1;rounded=0;fontSize=12;startSize=8;endSize=8;exitX=1;exitY=0.5;exitDx=0;exitDy=0;entryX=0;entryY=0.5;entryDx=0;entryDy=0;edgeStyle=orthogonalEdgeStyle;" edge="1" parent="1" source="T1bbL8raHNwF6YN5agup-49" target="9ercS7QOobOM5DavKYnJ-46">
          <mxGeometry width="50" height="50" relative="1" as="geometry">
            <mxPoint x="-380" y="640" as="sourcePoint" />
            <mxPoint x="-330" y="590" as="targetPoint" />
          </mxGeometry>
        </mxCell>
        <mxCell id="T1bbL8raHNwF6YN5agup-57" value="Editable Input&lt;br&gt;Field" style="verticalLabelPosition=middle;verticalAlign=middle;html=1;shape=trapezoid;perimeter=trapezoidPerimeter;whiteSpace=wrap;size=0.23;arcSize=10;flipV=1;labelPosition=center;align=center;fillColor=#d5e8d4;strokeColor=#82b366;" vertex="1" parent="1">
          <mxGeometry x="-280" y="109.99999999999999" width="100" height="60" as="geometry" />
        </mxCell>
        <mxCell id="T1bbL8raHNwF6YN5agup-59" value="Editable Input&lt;br&gt;Field" style="verticalLabelPosition=middle;verticalAlign=middle;html=1;shape=trapezoid;perimeter=trapezoidPerimeter;whiteSpace=wrap;size=0.23;arcSize=10;flipV=1;labelPosition=center;align=center;fillColor=#d5e8d4;strokeColor=#82b366;" vertex="1" parent="1">
          <mxGeometry x="-280" y="208.64" width="100" height="60" as="geometry" />
        </mxCell>
        <mxCell id="T1bbL8raHNwF6YN5agup-62" value="" style="endArrow=classic;html=1;rounded=0;fontSize=12;startSize=8;endSize=8;exitX=0.5;exitY=1;exitDx=0;exitDy=0;entryX=0;entryY=0.5;entryDx=0;entryDy=0;edgeStyle=orthogonalEdgeStyle;" edge="1" parent="1" source="T1bbL8raHNwF6YN5agup-77" target="T1bbL8raHNwF6YN5agup-41">
          <mxGeometry width="50" height="50" relative="1" as="geometry">
            <mxPoint x="-210" y="310" as="sourcePoint" />
            <mxPoint x="-160" y="260" as="targetPoint" />
          </mxGeometry>
        </mxCell>
        <mxCell id="T1bbL8raHNwF6YN5agup-63" value="" style="endArrow=classic;html=1;rounded=0;fontSize=12;startSize=8;endSize=8;exitX=0.5;exitY=0;exitDx=0;exitDy=0;entryX=0;entryY=0.5;entryDx=0;entryDy=0;edgeStyle=orthogonalEdgeStyle;" edge="1" parent="1" source="T1bbL8raHNwF6YN5agup-75" target="T1bbL8raHNwF6YN5agup-42">
          <mxGeometry width="50" height="50" relative="1" as="geometry">
            <mxPoint x="-210" y="310" as="sourcePoint" />
            <mxPoint x="-160" y="260" as="targetPoint" />
            <Array as="points">
              <mxPoint x="-105" y="204" />
            </Array>
          </mxGeometry>
        </mxCell>
        <mxCell id="T1bbL8raHNwF6YN5agup-64" value="" style="endArrow=classic;html=1;rounded=0;fontSize=12;startSize=8;endSize=8;exitX=1;exitY=0.5;exitDx=0;exitDy=0;entryX=0;entryY=0.5;entryDx=0;entryDy=0;edgeStyle=orthogonalEdgeStyle;" edge="1" parent="1" source="T1bbL8raHNwF6YN5agup-42" target="T1bbL8raHNwF6YN5agup-69">
          <mxGeometry width="50" height="50" relative="1" as="geometry">
            <mxPoint x="60" y="350" as="sourcePoint" />
            <mxPoint x="170" y="204" as="targetPoint" />
          </mxGeometry>
        </mxCell>
        <mxCell id="T1bbL8raHNwF6YN5agup-67" value="" style="endArrow=classic;html=1;rounded=0;fontSize=12;startSize=8;endSize=8;exitX=1;exitY=0.5;exitDx=0;exitDy=0;entryX=0;entryY=0.5;entryDx=0;entryDy=0;edgeStyle=orthogonalEdgeStyle;" edge="1" parent="1" source="T1bbL8raHNwF6YN5agup-41" target="T1bbL8raHNwF6YN5agup-68">
          <mxGeometry width="50" height="50" relative="1" as="geometry">
            <mxPoint x="170" y="310" as="sourcePoint" />
            <mxPoint x="170" y="165" as="targetPoint" />
          </mxGeometry>
        </mxCell>
        <mxCell id="T1bbL8raHNwF6YN5agup-68" value="Delete Team&lt;br&gt;Button" style="verticalLabelPosition=middle;verticalAlign=middle;html=1;shape=trapezoid;perimeter=trapezoidPerimeter;whiteSpace=wrap;size=0.23;arcSize=10;flipV=1;labelPosition=center;align=center;fillColor=#d5e8d4;strokeColor=#82b366;" vertex="1" parent="1">
          <mxGeometry x="160" y="109.99999999999999" width="100" height="60" as="geometry" />
        </mxCell>
        <mxCell id="T1bbL8raHNwF6YN5agup-69" value="Delete Team&lt;br&gt;Button" style="verticalLabelPosition=middle;verticalAlign=middle;html=1;shape=trapezoid;perimeter=trapezoidPerimeter;whiteSpace=wrap;size=0.23;arcSize=10;flipV=1;labelPosition=center;align=center;fillColor=#d5e8d4;strokeColor=#82b366;" vertex="1" parent="1">
          <mxGeometry x="160" y="208.64" width="100" height="60" as="geometry" />
        </mxCell>
        <mxCell id="T1bbL8raHNwF6YN5agup-70" value="" style="endArrow=classic;html=1;rounded=0;fontSize=12;startSize=8;endSize=8;exitX=1;exitY=0.5;exitDx=0;exitDy=0;edgeStyle=orthogonalEdgeStyle;" edge="1" parent="1" source="T1bbL8raHNwF6YN5agup-68" target="9ercS7QOobOM5DavKYnJ-1">
          <mxGeometry width="50" height="50" relative="1" as="geometry">
            <mxPoint x="-150" y="310" as="sourcePoint" />
            <mxPoint x="200" y="40" as="targetPoint" />
            <Array as="points">
              <mxPoint x="310" y="140" />
              <mxPoint x="310" />
              <mxPoint x="-702" />
            </Array>
          </mxGeometry>
        </mxCell>
        <mxCell id="T1bbL8raHNwF6YN5agup-71" value="" style="endArrow=classic;html=1;rounded=0;fontSize=12;startSize=8;endSize=8;exitX=1;exitY=0.5;exitDx=0;exitDy=0;edgeStyle=orthogonalEdgeStyle;" edge="1" parent="1">
          <mxGeometry width="50" height="50" relative="1" as="geometry">
            <mxPoint x="248.5" y="239.32" as="sourcePoint" />
            <mxPoint x="310" y="140" as="targetPoint" />
          </mxGeometry>
        </mxCell>
        <mxCell id="T1bbL8raHNwF6YN5agup-72" value="removeTeams()" style="rounded=1;whiteSpace=wrap;html=1;fillColor=#dae8fc;strokeColor=#6c8ebf;" vertex="1" parent="1">
          <mxGeometry x="-415" y="39" width="90" height="31" as="geometry" />
        </mxCell>
        <mxCell id="T1bbL8raHNwF6YN5agup-73" value="" style="endArrow=classic;html=1;rounded=0;fontSize=12;startSize=8;endSize=8;entryX=1;entryY=0.5;entryDx=0;entryDy=0;edgeStyle=orthogonalEdgeStyle;jumpStyle=gap;" edge="1" parent="1" target="T1bbL8raHNwF6YN5agup-72">
          <mxGeometry width="50" height="50" relative="1" as="geometry">
            <mxPoint x="40" y="420" as="sourcePoint" />
            <mxPoint x="-290" y="220" as="targetPoint" />
            <Array as="points">
              <mxPoint x="340" y="420" />
              <mxPoint x="340" y="55" />
            </Array>
          </mxGeometry>
        </mxCell>
        <mxCell id="T1bbL8raHNwF6YN5agup-74" value="" style="endArrow=classic;html=1;rounded=0;fontSize=12;startSize=8;endSize=8;exitX=0;exitY=0.5;exitDx=0;exitDy=0;entryX=0.75;entryY=0;entryDx=0;entryDy=0;edgeStyle=orthogonalEdgeStyle;" edge="1" parent="1" source="T1bbL8raHNwF6YN5agup-72" target="9ercS7QOobOM5DavKYnJ-21">
          <mxGeometry width="50" height="50" relative="1" as="geometry">
            <mxPoint x="-340" y="270" as="sourcePoint" />
            <mxPoint x="-290" y="220" as="targetPoint" />
          </mxGeometry>
        </mxCell>
        <mxCell id="T1bbL8raHNwF6YN5agup-76" value="" style="endArrow=classic;html=1;rounded=0;fontSize=12;startSize=8;endSize=8;exitX=1;exitY=0.5;exitDx=0;exitDy=0;entryX=0;entryY=0.5;entryDx=0;entryDy=0;edgeStyle=orthogonalEdgeStyle;" edge="1" parent="1" source="T1bbL8raHNwF6YN5agup-59" target="T1bbL8raHNwF6YN5agup-75">
          <mxGeometry width="50" height="50" relative="1" as="geometry">
            <mxPoint x="-192" y="239" as="sourcePoint" />
            <mxPoint x="-20" y="204" as="targetPoint" />
          </mxGeometry>
        </mxCell>
        <mxCell id="T1bbL8raHNwF6YN5agup-75" value="teamAvaliable()" style="rounded=1;whiteSpace=wrap;html=1;fillColor=#dae8fc;strokeColor=#6c8ebf;" vertex="1" parent="1">
          <mxGeometry x="-150" y="223.14" width="90" height="31" as="geometry" />
        </mxCell>
        <mxCell id="T1bbL8raHNwF6YN5agup-78" value="" style="endArrow=classic;html=1;rounded=0;fontSize=12;startSize=8;endSize=8;exitX=1;exitY=0.5;exitDx=0;exitDy=0;entryX=0;entryY=0.5;entryDx=0;entryDy=0;edgeStyle=orthogonalEdgeStyle;" edge="1" parent="1" source="T1bbL8raHNwF6YN5agup-57" target="T1bbL8raHNwF6YN5agup-77">
          <mxGeometry width="50" height="50" relative="1" as="geometry">
            <mxPoint x="-192" y="140" as="sourcePoint" />
            <mxPoint x="-20" y="165" as="targetPoint" />
          </mxGeometry>
        </mxCell>
        <mxCell id="T1bbL8raHNwF6YN5agup-77" value="teamAvaliable()" style="rounded=1;whiteSpace=wrap;html=1;fillColor=#dae8fc;strokeColor=#6c8ebf;" vertex="1" parent="1">
          <mxGeometry x="-150" y="124.5" width="90" height="31" as="geometry" />
        </mxCell>
        <mxCell id="T1bbL8raHNwF6YN5agup-82" value="" style="endArrow=classic;html=1;rounded=0;fontSize=12;startSize=8;endSize=8;exitX=1;exitY=0.5;exitDx=0;exitDy=0;entryX=0;entryY=0.5;entryDx=0;entryDy=0;edgeStyle=orthogonalEdgeStyle;" edge="1" parent="1" source="T1bbL8raHNwF6YN5agup-14" target="T1bbL8raHNwF6YN5agup-81">
          <mxGeometry width="50" height="50" relative="1" as="geometry">
            <mxPoint x="-532" y="624" as="sourcePoint" />
            <mxPoint x="-345" y="624" as="targetPoint" />
          </mxGeometry>
        </mxCell>
        <mxCell id="T1bbL8raHNwF6YN5agup-81" value="teamAvaliable()" style="rounded=1;whiteSpace=wrap;html=1;fillColor=#dae8fc;strokeColor=#6c8ebf;" vertex="1" parent="1">
          <mxGeometry x="-515" y="608" width="90" height="31" as="geometry" />
        </mxCell>
        <mxCell id="T1bbL8raHNwF6YN5agup-83" value="" style="endArrow=classic;html=1;rounded=0;fontSize=12;startSize=8;endSize=8;exitX=1;exitY=0.5;exitDx=0;exitDy=0;entryX=0;entryY=0.5;entryDx=0;entryDy=0;edgeStyle=orthogonalEdgeStyle;" edge="1" parent="1" source="T1bbL8raHNwF6YN5agup-16" target="T1bbL8raHNwF6YN5agup-80">
          <mxGeometry width="50" height="50" relative="1" as="geometry">
            <mxPoint x="-532" y="694" as="sourcePoint" />
            <mxPoint x="-345" y="664" as="targetPoint" />
          </mxGeometry>
        </mxCell>
        <mxCell id="T1bbL8raHNwF6YN5agup-80" value="teamAvaliable()" style="rounded=1;whiteSpace=wrap;html=1;fillColor=#dae8fc;strokeColor=#6c8ebf;" vertex="1" parent="1">
          <mxGeometry x="-515" y="678" width="90" height="31" as="geometry" />
        </mxCell>
      </root>
    </mxGraphModel>
  </diagram>
</mxfile>
